<?xml version="1.0" encoding="utf-8"?><!-- Generator: Adobe Illustrator 25.3.1, SVG Export Plug-In . SVG Version: 6.00 Build 0)  -->
<svg version="1.1" id="Layer_1" xmlns="http://www.w3.org/2000/svg" viewBox="0 0 22.16 21.5"
    enable-background="new 0 0 22.16 21.5" xml:space="preserve">
<g id="Group_2434" transform="translate(-301.294 36.348)">
	<g id="Iconly_Light_Notification" transform="translate(301.294 -36.348)">
		<g id="Notification" transform="translate(3.174 1.814)">
			<path id="Path_425" fill="none" stroke="#FFFFFF" stroke-width="1.5" d="M0,10.69v-0.2C0.03,9.9,0.22,9.33,0.55,8.84
				c0.54-0.59,0.92-1.31,1.08-2.1c0-0.6,0-1.22,0.05-1.82C1.95,2.01,4.83,0,7.67,0h0.07c2.84,0,5.72,2.01,6,4.92
				c0.05,0.6,0,1.22,0.04,1.82c0.17,0.79,0.54,1.51,1.08,2.11c0.33,0.49,0.52,1.05,0.55,1.64v0.19c0.02,0.79-0.25,1.56-0.77,2.17
				c-0.68,0.71-1.6,1.16-2.59,1.24c-2.9,0.31-5.82,0.31-8.72,0c-0.98-0.09-1.9-0.53-2.59-1.24C0.25,12.24-0.02,11.48,0,10.69z" />
            <path id="Path_421" fill="none" stroke="#FFFFFF" stroke-width="1.5" d="M5.49,17.1c0.46,0.57,1.12,0.94,1.85,1.02
				C8.07,18.2,8.8,18,9.38,17.55c0.18-0.13,0.34-0.29,0.48-0.46" />
		</g>
	</g>
</g>
</svg>
