<svg xmlns="http://www.w3.org/2000/svg" width="25" height="25" viewBox="0 0 25 25">
  <g id="Group_2249" data-name="Group 2249" transform="translate(2279 -2126.509)">
    <g id="Group_2230" data-name="Group 2230" transform="translate(-2279 2126.509)">
      <g id="Group_2229" data-name="Group 2229">
        <path id="Path_2357" data-name="Path 2357" d="M22.321,2.679H19.643V.893a.893.893,0,1,0-1.786,0V2.679H7.143V.893a.893.893,0,1,0-1.786,0V2.679H2.679A2.679,2.679,0,0,0,0,5.357V22.321A2.679,2.679,0,0,0,2.679,25H22.321A2.679,2.679,0,0,0,25,22.321V5.357A2.679,2.679,0,0,0,22.321,2.679Zm.893,19.643a.893.893,0,0,1-.893.893H2.679a.893.893,0,0,1-.893-.893V10.714H23.214Zm0-13.393H1.786V5.357a.893.893,0,0,1,.893-.893H5.357V6.25a.893.893,0,1,0,1.786,0V4.464H17.857V6.25a.893.893,0,1,0,1.786,0V4.464h2.679a.893.893,0,0,1,.893.893V8.929Z" fill="#bbc7db"/>
      </g>
    </g>
    <g id="Group_2232" data-name="Group 2232" transform="translate(-2274.536 2139.009)">
      <g id="Group_2231" data-name="Group 2231" transform="translate(0 0)">
        <path id="Path_2358" data-name="Path 2358" d="M88.012,238.933H86.226a.893.893,0,0,0,0,1.786h1.786a.893.893,0,0,0,0-1.786Z" transform="translate(-85.333 -238.933)" fill="#bbc7db"/>
      </g>
    </g>
    <g id="Group_2234" data-name="Group 2234" transform="translate(-2268.286 2139.009)">
      <g id="Group_2233" data-name="Group 2233" transform="translate(0 0)">
        <path id="Path_2359" data-name="Path 2359" d="M207.479,238.933h-1.786a.893.893,0,0,0,0,1.786h1.786a.893.893,0,0,0,0-1.786Z" transform="translate(-204.8 -238.933)" fill="#bbc7db"/>
      </g>
    </g>
    <g id="Group_2236" data-name="Group 2236" transform="translate(-2262.036 2139.009)">
      <g id="Group_2235" data-name="Group 2235" transform="translate(0 0)">
        <path id="Path_2360" data-name="Path 2360" d="M326.946,238.933H325.16a.893.893,0,1,0,0,1.786h1.786a.893.893,0,1,0,0-1.786Z" transform="translate(-324.267 -238.933)" fill="#bbc7db"/>
      </g>
    </g>
    <g id="Group_2238" data-name="Group 2238" transform="translate(-2274.536 2142.58)">
      <g id="Group_2237" data-name="Group 2237" transform="translate(0)">
        <path id="Path_2361" data-name="Path 2361" d="M88.012,307.2H86.226a.893.893,0,0,0,0,1.786h1.786a.893.893,0,0,0,0-1.786Z" transform="translate(-85.333 -307.2)" fill="#bbc7db"/>
      </g>
    </g>
    <g id="Group_2240" data-name="Group 2240" transform="translate(-2268.286 2142.58)">
      <g id="Group_2239" data-name="Group 2239" transform="translate(0)">
        <path id="Path_2362" data-name="Path 2362" d="M207.479,307.2h-1.786a.893.893,0,0,0,0,1.786h1.786a.893.893,0,0,0,0-1.786Z" transform="translate(-204.8 -307.2)" fill="#bbc7db"/>
      </g>
    </g>
    <g id="Group_2242" data-name="Group 2242" transform="translate(-2262.036 2142.58)">
      <g id="Group_2241" data-name="Group 2241" transform="translate(0)">
        <path id="Path_2363" data-name="Path 2363" d="M326.946,307.2H325.16a.893.893,0,1,0,0,1.786h1.786a.893.893,0,1,0,0-1.786Z" transform="translate(-324.267 -307.2)" fill="#bbc7db"/>
      </g>
    </g>
    <g id="Group_2244" data-name="Group 2244" transform="translate(-2274.536 2146.151)">
      <g id="Group_2243" data-name="Group 2243" transform="translate(0 0)">
        <path id="Path_2364" data-name="Path 2364" d="M88.012,375.467H86.226a.893.893,0,1,0,0,1.786h1.786a.893.893,0,1,0,0-1.786Z" transform="translate(-85.333 -375.467)" fill="#bbc7db"/>
      </g>
    </g>
    <g id="Group_2246" data-name="Group 2246" transform="translate(-2268.286 2146.151)">
      <g id="Group_2245" data-name="Group 2245" transform="translate(0 0)">
        <path id="Path_2365" data-name="Path 2365" d="M207.479,375.467h-1.786a.893.893,0,0,0,0,1.786h1.786a.893.893,0,0,0,0-1.786Z" transform="translate(-204.8 -375.467)" fill="#bbc7db"/>
      </g>
    </g>
    <g id="Group_2248" data-name="Group 2248" transform="translate(-2262.036 2146.151)">
      <g id="Group_2247" data-name="Group 2247" transform="translate(0 0)">
        <path id="Path_2366" data-name="Path 2366" d="M326.946,375.467H325.16a.893.893,0,0,0,0,1.786h1.786a.893.893,0,0,0,0-1.786Z" transform="translate(-324.267 -375.467)" fill="#bbc7db"/>
      </g>
    </g>
  </g>
</svg>
