<svg xmlns="http://www.w3.org/2000/svg" width="89.49" height="64.255" viewBox="0 0 89.49 64.255">
  <g id="Group_2362" data-name="Group 2362" transform="translate(1913.174 -1497.097)">
    <path id="Path_2460" data-name="Path 2460" d="M-1782.814,1497.1c1.747.748,3.654.617,5.475.972a31.84,31.84,0,0,1,17.851,9.492,19.083,19.083,0,0,1,.327,25.9c-2.93,3.344-3.075,2.433-.916,6.736q1.531,3.053,3.053,6.1c-.757.506-1.212-.024-1.68-.252-2.879-1.408-5.763-2.811-8.6-4.3a3.754,3.754,0,0,0-3.564-.185,34.528,34.528,0,0,1-8.422,2.224,2.226,2.226,0,0,1-1.734-.177,27.4,27.4,0,0,0,2.05-9.619,25.3,25.3,0,0,0-2.646-11.407,3.4,3.4,0,0,1-.417-2.137c.448-2.5.1-5.025.215-7.536.037-.823-.336-1.111-1.13-1.1-1.661.031-3.322,0-4.983.013-.331,0-.857-.08-.91.276-.266,1.814-1,.712-1.6.281a35.827,35.827,0,0,0-15-6.425c-.554-.1-1.092-.28-1.908-.493a15.077,15.077,0,0,1,4.112-3.124,37.224,37.224,0,0,1,15.226-4.882c.383-.04.822.082,1.068-.361Zm12.77,20.591c0-1.693-.036-3.126.013-4.555.032-.933-.266-1.364-1.264-1.326-1.486.057-2.979.06-4.465,0-1.021-.042-1.266.424-1.242,1.338a47.4,47.4,0,0,1-.019,5.148c-.139,1.679.3,2.486,2.126,2.185.562-.092,1.455-.212,1.278.817-.291,1.684-.467,3.6-2.135,4.485-1.8.954-1.706,1.99-.991,3.589.486,1.085.895,1.1,1.753.563a9.666,9.666,0,0,0,4.287-5.368C-1769.935,1522.214-1770.1,1519.818-1770.044,1517.688Z" transform="translate(-69.428 0)" fill="#b5b4b4"/>
    <path id="Path_2461" data-name="Path 2461" d="M-1910.987,1583.988c1.581-3.143,3.107-6.213,4.667-9.265a2.285,2.285,0,0,0-.247-2.975c-10.7-10.791-8.116-26.8,5.669-35.17,11.736-7.123,28.228-6.379,39.17,1.887,12.576,9.5,12.863,25.99.316,35.552-10.492,8-22.22,8.971-34.456,4.568a5.3,5.3,0,0,0-4.97.34c-2.812,1.642-5.722,3.116-8.6,4.64C-1909.868,1583.793-1910.254,1584.229-1910.987,1583.988Zm17.246-23.336c0,1.145.036,2.292-.013,3.434-.034.8.213,1.134,1.061,1.108,1.659-.05,3.323-.066,4.981.005.94.041,1.162-.316,1.133-1.185a43.845,43.845,0,0,1,.019-5.32c.159-1.768-.385-2.525-2.2-2.2-1.092.2-1.394-.253-1.207-1.338.348-2.026,1.132-3.751,3.046-4.692.76-.374.867-.775.567-1.462a12.74,12.74,0,0,1-.63-1.592c-.261-.917-.685-.965-1.482-.526a8.995,8.995,0,0,0-4.663,6.254A33.694,33.694,0,0,0-1893.741,1560.652Zm11.962,0c.177,1.151-.75,3.331.333,4.265.928.8,3.046.229,4.639.26a9.876,9.876,0,0,1,1.028.008c.933.117,1.167-.316,1.141-1.185a47.2,47.2,0,0,1,.02-5.482c.146-1.675-.4-2.316-2.054-2.02-1.344.241-1.532-.49-1.338-1.587a5.456,5.456,0,0,1,2.752-4.3c.866-.442,1.258-.88.7-1.826a6.186,6.186,0,0,1-.556-1.431c-.233-.815-.6-.937-1.357-.51a9.283,9.283,0,0,0-4.637,5.679A27.592,27.592,0,0,0-1881.779,1560.653Z" transform="translate(0 -22.707)" fill="#ff8214"/>
    <path id="Path_2462" data-name="Path 2462" d="M-1712.583,1545.736c-.053,2.13.109,4.526-.658,6.874a9.67,9.67,0,0,1-4.286,5.368c-.859.534-1.268.523-1.753-.563-.715-1.6-.8-2.634.991-3.589,1.668-.887,1.844-2.8,2.134-4.485.177-1.029-.716-.909-1.277-.817-1.822.3-2.266-.506-2.127-2.185a47.276,47.276,0,0,0,.019-5.149c-.024-.914.221-1.38,1.242-1.338,1.486.062,2.979.058,4.465,0,1-.038,1.3.394,1.264,1.326C-1712.619,1542.61-1712.583,1544.042-1712.583,1545.736Z" transform="translate(-126.888 -28.048)" fill="#fdfdfe"/>
    <path id="Path_2463" data-name="Path 2463" d="M-1856.709,1589.089a33.78,33.78,0,0,1,.618-7.51,8.993,8.993,0,0,1,4.663-6.254c.8-.439,1.221-.392,1.482.526a12.843,12.843,0,0,0,.63,1.592c.3.687.193,1.088-.567,1.462-1.914.941-2.7,2.666-3.046,4.692-.187,1.086.115,1.536,1.207,1.338,1.812-.328,2.355.429,2.2,2.2a43.85,43.85,0,0,0-.018,5.32c.028.869-.193,1.226-1.134,1.185-1.657-.072-3.321-.056-4.98-.006-.847.026-1.095-.312-1.061-1.108C-1856.671,1591.381-1856.707,1590.234-1856.709,1589.089Z" transform="translate(-37.034 -51.145)" fill="#fdfdfe"/>
    <path id="Path_2464" data-name="Path 2464" d="M-1822.284,1589.066a27.61,27.61,0,0,1,.67-8.127,9.286,9.286,0,0,1,4.637-5.678c.759-.428,1.125-.306,1.358.509a6.165,6.165,0,0,0,.556,1.431c.556.945.165,1.384-.7,1.826a5.458,5.458,0,0,0-2.753,4.3c-.193,1.1-.006,1.828,1.338,1.588,1.653-.3,2.2.344,2.054,2.019a47.1,47.1,0,0,0-.019,5.483c.025.869-.208,1.3-1.141,1.185a9.622,9.622,0,0,0-1.028-.008c-1.592-.032-3.71.541-4.639-.26C-1823.034,1592.4-1822.108,1590.216-1822.284,1589.066Z" transform="translate(-59.495 -51.119)" fill="#fdfdfe"/>
  </g>
</svg>
