<svg id="noun_Home_1191731" xmlns="http://www.w3.org/2000/svg" width="27.87" height="27.125"
    viewBox="0 0 27.87 27.125">
    <path id="Path_2353" data-name="Path 2353"
        d="M34.936,32.663a1.216,1.216,0,0,0-1.216,1.216v7.6a1.776,1.776,0,0,1-1.77,1.776H22.128V36.19a1.447,1.447,0,0,1,1.447-1.447h1.788a1.447,1.447,0,0,1,1.447,1.447v3.649a1.216,1.216,0,0,0,2.433,0V36.19a3.886,3.886,0,0,0-3.88-3.88H23.575a3.886,3.886,0,0,0-3.88,3.88v7.061H16.989a1.776,1.776,0,0,1-1.776-1.776v-7.6a1.216,1.216,0,1,0-2.433,0v7.6a4.215,4.215,0,0,0,4.209,4.209H31.95a4.215,4.215,0,0,0,4.209-4.209v-7.6a1.216,1.216,0,0,0-1.222-1.216Z"
        transform="translate(-10.591 -18.559)" fill="#bbc7db" />
    <path id="Path_2354" data-name="Path 2354"
        d="M36.688,21.565,26.1,10.947a4.257,4.257,0,0,0-6.021,0L9.43,21.565a1.216,1.216,0,0,0,1.715,1.7L21.769,12.668a1.825,1.825,0,0,1,2.585,0L34.973,23.262a1.217,1.217,0,0,0,1.721-1.721Z"
        transform="translate(-9.18 -9.699)" fill="#bbc7db" />
</svg>
