<?xml version="1.0" encoding="utf-8"?><!-- Generator: Adobe Illustrator 25.3.1, SVG Export Plug-In . SVG Version: 6.00 Build 0)  -->
<svg version="1.1" id="Layer_1" xmlns="http://www.w3.org/2000/svg"
    xmlns:xlink="http://www.w3.org/1999/xlink" x="0px" y="0px" viewBox="0 0 40 40"
    enable-background="new 0 0 40 40" xml:space="preserve">
<g id="Group_2433" transform="translate(-49.487 25.484)">
	<g id="Group_2224" transform="translate(2332.487 -1243.484)">
		<path id="Rectangle_662" opacity="1" fill="#FFFFFF" enable-background="new" d="M-2272,1218h18c6.08,0,11,4.92,11,11v18
			c0,6.08-4.92,11-11,11h-18c-6.08,0-11-4.92-11-11v-18C-2283,1222.92-2278.08,1218-2272,1218z" />
        <g id="Group_2223" transform="translate(-2279.326 1221.913)">
			<path id="Path_2349" fill="#1E237D" d="M7.26,2.53c0,0,3.25-1.58,5.66,2.97c1.4,2.54,2.37,5.3,2.88,8.16c0,0,5.75-1.67,6.68-2.32
				c0-0.91-1.77-8.02-4.92-10.66c-0.6-0.5-1.37-0.74-2.14-0.67C10.94,0.42,8.13,1.23,7.26,2.53z" />
            <path id="Path_2350" fill="#DD2518" d="M0.21,11.62c0,0-0.56,4.43,7.05,3.88s14.56-1.47,21.05-6.95c1.3-1.14,1.64-3.02,0.83-4.54
				c0.86,0.62,1.51,1.49,1.85,2.5c0.56,1.67,1.48,4.91,1.48,4.91c0.31,0.81,0.17,1.73-0.37,2.41c-0.93,1.11-3.99,4.73-13.17,7.14
				S3.08,22.74,2.16,20.7S-0.62,14.96,0.21,11.62z" />
            <path id="Path_2351" fill="#1C217C" d="M16.54,22.53c0,0,5.74-1.45,6.94-2.29c0,0,0.74,9.46-2.32,10.76c0,0-6.49,2.78-9.55,1.02
				c1.56,0.27,3.1-0.6,3.66-2.09C16,27.53,16.42,25.04,16.54,22.53z" />
		</g>
	</g>
</g>
</svg>
