<?xml version="1.0" encoding="utf-8"?><!-- Generator: Adobe Illustrator 25.3.1, SVG Export Plug-In . SVG Version: 6.00 Build 0)  -->
<svg version="1.1" id="Layer_1" xmlns="http://www.w3.org/2000/svg"
    xmlns:xlink="http://www.w3.org/1999/xlink" x="0px" y="0px" viewBox="0 0 32.51 32.51"
    enable-background="new 0 0 32.51 32.51" xml:space="preserve">
<g id="_24-hours" transform="translate(0.15 0.15)">
	<g id="Group_2351">
		<g id="Group_2350">
			<path id="Path_2439" fill="#E26F0A" stroke="#E26F0A" stroke-width="1" d="M31.67,28.99h-1.61v-10.2c0-0.3-0.24-0.54-0.54-0.54
				c-0.18,0-0.34,0.09-0.44,0.23l-7.51,10.74c-0.17,0.24-0.11,0.58,0.13,0.75c0.09,0.06,0.2,0.1,0.31,0.1h6.98v1.61
				c0,0.3,0.24,0.54,0.54,0.54c0.3,0,0.54-0.24,0.54-0.54l0,0v-1.61h1.61c0.3,0,0.54-0.24,0.54-0.54
				C32.21,29.23,31.97,28.99,31.67,28.99L31.67,28.99z M28.99,28.99h-5.95l5.95-8.5V28.99z" />
            <path id="Path_2440" fill="#E26F0A" stroke="#E26F0A" stroke-width="1" d="M22.01,31.14h-6.35l5.91-6.96
				c0.01-0.02,0.03-0.03,0.04-0.05c1.11-1.65,0.74-3.87-0.84-5.07c-1.93-1.38-4.62-0.93-6,1c-0.52,0.73-0.8,1.6-0.8,2.49
				c0,0.3,0.24,0.54,0.54,0.54s0.54-0.24,0.54-0.54c0-1.78,1.44-3.22,3.22-3.22c0.67,0,1.33,0.21,1.88,0.6
				c1.11,0.85,1.37,2.42,0.59,3.58l-6.64,7.82c-0.19,0.23-0.16,0.57,0.06,0.76c0.1,0.08,0.22,0.13,0.35,0.13h7.52
				c0.3,0,0.54-0.24,0.54-0.54C22.56,31.38,22.32,31.14,22.01,31.14L22.01,31.14L22.01,31.14z" />
            <path id="Path_2441" fill="#E26F0A" stroke="#E26F0A" stroke-width="1" d="M14.51,28.47c0.01-0.3-0.22-0.55-0.52-0.56l0,0
				c-7-0.26-12.63-5.87-12.9-12.88h2.13c0.3,0,0.54-0.24,0.54-0.54c0-0.3-0.24-0.54-0.54-0.54H1.09C1.36,6.97,6.97,1.36,13.96,1.09
				v1.59c0,0.3,0.24,0.54,0.54,0.54c0.3,0,0.54-0.24,0.54-0.54V1.09c6.9,0.27,12.46,5.73,12.86,12.62l-2.09-2.09
				c-0.22-0.2-0.56-0.19-0.76,0.03c-0.19,0.21-0.19,0.53,0,0.73l3,3c0.06,0.07,0.13,0.12,0.21,0.15c0.02,0.01,0.04,0.01,0.06,0.02
				c0.04,0.01,0.08,0.02,0.11,0.03h0.03c0.04,0,0.08-0.01,0.12-0.02c0.02,0,0.04-0.01,0.07-0.01c0.07-0.03,0.14-0.07,0.19-0.12
				l3.04-3.04c0.2-0.22,0.19-0.56-0.03-0.76c-0.21-0.19-0.53-0.19-0.73,0l-2.15,2.14c-0.38-7.7-6.73-13.75-14.44-13.76
				C14.52,0.01,14.51,0,14.5,0s-0.02,0.01-0.04,0.01C6.48,0.02,0.02,6.48,0.01,14.46C0.01,14.47,0,14.48,0,14.5s0.01,0.02,0.01,0.04
				c0.01,7.78,6.17,14.16,13.94,14.45h0.02C14.26,28.98,14.5,28.75,14.51,28.47z" />
            <path id="Path_2442" fill="#E26F0A" stroke="#E26F0A" stroke-width="1" d="M21.71,7.28c-0.21-0.21-0.55-0.21-0.76,0l-5.77,5.77
				c-0.44-0.19-0.93-0.19-1.37,0l-2.73-2.73c-0.22-0.2-0.56-0.19-0.76,0.03c-0.19,0.21-0.19,0.53,0,0.73l2.73,2.73
				c-0.38,0.8-0.05,1.76,0.75,2.15c0.8,0.38,1.76,0.05,2.15-0.75c0.21-0.44,0.21-0.95,0-1.39l5.76-5.76
				C21.92,7.83,21.92,7.49,21.71,7.28z M14.88,14.88L14.88,14.88c-0.21,0.2-0.55,0.2-0.76,0c-0.21-0.21-0.21-0.55,0-0.76
				s0.55-0.21,0.76,0C15.09,14.33,15.09,14.67,14.88,14.88C14.88,14.88,14.88,14.88,14.88,14.88z" />
		</g>
	</g>
</g>
</svg>
