<svg xmlns="http://www.w3.org/2000/svg" width="145.899" height="145.899"
    viewBox="0 0 145.899 145.899">
    <g id="Group_2428" data-name="Group 2428" transform="translate(-233.918 -1466.983)">
        <circle id="Ellipse_94" data-name="Ellipse 94" cx="72.949" cy="72.949" r="72.949"
            transform="translate(233.918 1466.983)" fill="#f8d212" />
        <path id="star"
            d="M81.738,29.986,55.925,26.043,44.356,1.4a2.731,2.731,0,0,0-4.748,0L28.042,26.043,2.229,29.986a2.623,2.623,0,0,0-1.48,4.426L19.5,53.633,15.069,80.806a2.626,2.626,0,0,0,3.859,2.718L41.984,70.783,65.039,83.528A2.626,2.626,0,0,0,68.9,80.81L64.465,53.636,83.218,34.415a2.626,2.626,0,0,0-1.48-4.429Z"
            transform="translate(264.918 1497.964)" fill="#ff8214" />
    </g>
</svg>
